<?xml version="1.0" standalone="no"?><!DOCTYPE svg PUBLIC "-//W3C//DTD SVG 1.1//EN" "http://www.w3.org/Graphics/SVG/1.1/DTD/svg11.dtd"><svg t="1646299268659" class="icon" viewBox="0 0 1024 1024" version="1.1" xmlns="http://www.w3.org/2000/svg" p-id="6350" width="128" height="128" xmlns:xlink="http://www.w3.org/1999/xlink"><defs><style type="text/css"></style></defs><path d="M513.12 523.2m-464 0a464 464 0 1 0 928 0 464 464 0 1 0-928 0Z" p-id="6351"></path><path d="M703.04 432.96c-40.64-63.2-107.68-62.4-188-29.44-107.68-40.64-163.04-8-195.04 59.36a262.08 262.08 0 0 0-11.2 74.08 251.68 251.68 0 0 0 43.2 137.12c65.6 92.96 75.2 90.08 162.88 56.64 41.6-7.68 76.48 30.56 114.24 13.12a215.2 215.2 0 0 0 85.6-130.72c-65.12-25.12-96.16-113.12-11.68-180.16z" fill="#FFFFFF" p-id="6352"></path><path d="M614.56 272c-76.32 8.96-111.2 46.4-106.08 116.48C576 384 613.44 349.12 614.56 272z" fill="#FFFFFF" p-id="6353"></path></svg>