<?xml version="1.0" standalone="no"?><!DOCTYPE svg PUBLIC "-//W3C//DTD SVG 1.1//EN" "http://www.w3.org/Graphics/SVG/1.1/DTD/svg11.dtd"><svg t="1646299095464" class="icon" viewBox="0 0 1024 1024" version="1.1" xmlns="http://www.w3.org/2000/svg" p-id="6024" width="128" height="128" xmlns:xlink="http://www.w3.org/1999/xlink"><defs><style type="text/css"></style></defs><path d="M510.381 32c-264.202 0-478.381 214.179-478.381 478.381s214.179 478.381 478.381 478.381c264.204 0 478.381-214.179 478.381-478.381s-214.178-478.381-478.381-478.381zM161.186 560.028c-9.154 0-16.625-7.209-16.625-16.085v-96.515c0-8.842 7.471-16.073 16.625-16.073h175.439l-76.384 128.673h-99.055zM269.535 741.568l-55.993 36.875c-7.53 4.987-12.86 1.823-11.816-6.962l7.471-63.096c1.042-8.782 8.372-12.379 16.301-7.981l43.33 24.063c7.914 4.416 8.238 12.149 0.707 17.101zM282.978 706.010l-43.33-24.066c-7.922-4.413-10.716-14.278-6.103-21.947l200.638-338.097c4.551-7.685 14.815-10.381 22.729-5.926l43.33 24.015c7.925 4.449 10.654 14.323 6.109 21.981l-200.641 338.125c-4.548 7.673-14.815 10.299-22.732 5.915zM435.686 560.028l76.378-128.673h43.98l62.029 128.673h-182.387zM684.458 598.428c-17.348-8.411-103.738-201.322-125.873-251.656-22.155-50.332-89.063-184.314-67.423-194.729 15.401-7.482 70.668 98.023 112.104 161.355 41.377 63.34 127.902 226.657 138.547 245.257 10.595 18.643-10.193 34.187-21.749 38.833-11.569 4.659-18.272 9.292-35.606 0.939zM741.227 687.1l-26.106-39.911c-5.397-8.29-2.594-18.539 6.16-22.923l24.881-12.382c8.774-4.333 19.754-0.83 24.42 7.859l20.596 38.324c4.683 8.676 1.492 19.805-6.956 24.696l-17.793 10.294c-8.445 4.971-19.806 2.272-25.203-5.957zM837.292 791.781c-5.453-16.904-47.090-18.029-65.732-43.496-18.705-25.373-3.248-38.451 3.247-44.483 75.612-41.212 62.484 87.98 62.484 87.98zM859.579 560.028h-87.819c-0.968-4.956-2.541-9.925-5.192-14.571-2.288-3.965-8.065-14.633-16.116-29.53-11.622-21.479-28.317-52.211-46.186-84.572h155.305c9.154 0 16.622 7.232 16.622 16.079v96.509h0.008c-0.001 8.875-7.469 16.085-16.623 16.085z" p-id="6025"></path></svg>