<svg t="1665545330110" class="icon" viewBox="0 0 1040 1024" version="1.1" xmlns="http://www.w3.org/2000/svg" p-id="10602" width="128" height="128"><path d="M513.984191 378.481054c-4.529153 4.844332-6.517437 10.429537-6.148024 16.641005 0.437975 6.080485 2.547009 13.531178 6.708795 22.100344l41.847084-34.644031c-9.253758-7.324826-17.570167-11.047614-24.650423-11.42112C524.789281 370.782721 518.767124 373.266285 513.984191 378.481054z" p-id="10603"></path><path d="M873.757161 148.387585c-199.832258-199.772906-523.914354-199.772906-723.810057 0-199.832258 199.895703-199.832258 523.977799 0 723.874525 199.895703 199.767789 523.976776 199.767789 723.810057 0C1073.589418 672.365384 1073.589418 348.282265 873.757161 148.387585zM767.812223 779.934309c0 27.857465-22.924105 50.347688-51.161217 50.347688L307.2395 830.281997c-28.236088 0-51.161217-22.491247-51.161217-50.347688L256.078283 478.466256c0-27.862581 22.924105-50.348712 51.161217-50.348712L307.2395 322.547137l0.064468 0c0.811482-108.323101 92.139513-195.898669 204.578352-195.898669 112.566752 0 203.89376 87.575568 204.705242 195.898669l0.063445 0 0 105.570407c28.237111 0 51.161217 22.48613 51.161217 50.348712L767.812223 779.934309z" p-id="10604"></path><path d="M640.568191 323.172377c-0.50142-65.965387-57.156768-119.691009-126.186957-119.691009-68.963675 0-125.559671 53.725622-126.061091 119.691009l-0.12382-0.624217 0 105.570407 252.43122 0L640.627543 322.547137 640.568191 323.172377z" p-id="10605"></path></svg>
