<?xml version="1.0" standalone="no"?><!DOCTYPE svg PUBLIC "-//W3C//DTD SVG 1.1//EN" "http://www.w3.org/Graphics/SVG/1.1/DTD/svg11.dtd"><svg t="1646732772213" class="icon" viewBox="0 0 1354 1024" version="1.1" xmlns="http://www.w3.org/2000/svg" p-id="5976" width="169.25" height="128" xmlns:xlink="http://www.w3.org/1999/xlink"><defs><style type="text/css"></style></defs><path d="M1034.83248 645.406063l-191.508238 191.508238a53.622507 53.622507 0 0 1-75.964301 0l-191.508238-191.508238a53.622507 53.622507 0 0 1 0-75.964301 53.622507 53.622507 0 0 1 75.965301 0l102.775054 102.775054V303.884205a53.622507 53.622507 0 1 1 107.245014 0v368.332611l95.753119-102.775054a53.622507 53.622507 0 0 1 75.965301 0 53.622507 53.622507 0 0 1 1.276988 75.964301z m262.364587-175.548385a365.141641 365.141641 0 0 0-97.030108-98.94609 378.546518 378.546518 0 0 0-29.364729-123.202867 397.697341 397.697341 0 0 0-89.369178-127.671825 404.719277 404.719277 0 0 0-133.418773-91.28516A408.549242 408.549242 0 0 0 792.894706 0.026a400.251318 400.251318 0 0 0-225.977921 67.665377 410.464224 410.464224 0 0 0-97.669102 91.285161 261.088598 261.088598 0 0 0-63.836412-7.65993 247.044727 247.044727 0 0 0-176.18738 70.857348 245.129745 245.129745 0 0 0-72.134336 202.360139 324.925011 324.925011 0 0 0-84.263225 72.77333A308.965158 308.965158 0 0 0 0.053 702.22054a310.242146 310.242146 0 0 0 97.029107 228.531898 331.307952 331.307952 0 0 0 105.969025 69.58136 330.030964 330.030964 0 0 0 127.670826 23.619782h656.233963A360.034688 360.034688 0 0 0 1242.298572 919.261544a360.034688 360.034688 0 0 0 81.071254-116.181932 354.288741 354.288741 0 0 0 27.449748-138.523725 344.713829 344.713829 0 0 0-54.260501-194.699209z" p-id="5977"></path></svg>