<?xml version="1.0" standalone="no"?><!DOCTYPE svg PUBLIC "-//W3C//DTD SVG 1.1//EN" "http://www.w3.org/Graphics/SVG/1.1/DTD/svg11.dtd"><svg t="1646732887108" class="icon" viewBox="0 0 1024 1024" version="1.1" xmlns="http://www.w3.org/2000/svg" p-id="11633" width="128" height="128" xmlns:xlink="http://www.w3.org/1999/xlink"><defs><style type="text/css"></style></defs><path d="M927.311379 96.695273c-126.782521-126.763079-332.334038-126.763079-459.116559 0-99.954503 99.955526-121.081683 248.851695-63.426565 369.513822L1.628592 869.313965l7.52437 145.539724 145.501862 7.52437 58.506509-58.511625c-0.080841-0.079818-76.478835-76.54228-51.016931-102.038978 25.477254-25.460882 101.845573 50.825572 102.035908 51.015907L315.199287 861.819271c-0.284479-0.283456-76.476789-76.555583-51.014884-102.000092 25.474185-25.51 102.006232 51.003628 102.006232 51.003628l-4.264117 4.26514 55.273884-55.279001c-0.444115-0.445138-76.44609-76.577073-51.009767-102.012372 25.51-25.511024 102.005208 51.002604 102.005208 51.002604L449.642279 727.366046l108.149139-108.154255c120.67236 57.642838 269.571598 36.514635 369.519961-63.435775C1054.057061 429.009867 1054.057061 223.476771 927.311379 96.695273zM774.247284 402.747737c-42.247196 42.266639-110.776989 42.266639-152.989393 0-42.284035-42.249243-42.284035-110.759593 0-153.026232 42.212404-42.24822 110.742197-42.24822 152.989393 0C816.53439 291.988144 816.53439 360.498494 774.247284 402.747737z" p-id="11634"></path></svg>