<?xml version="1.0" standalone="no"?><!DOCTYPE svg PUBLIC "-//W3C//DTD SVG 1.1//EN" "http://www.w3.org/Graphics/SVG/1.1/DTD/svg11.dtd"><svg t="1646299125504" class="icon" viewBox="0 0 1024 1024" version="1.1" xmlns="http://www.w3.org/2000/svg" p-id="7108" width="128" height="128" xmlns:xlink="http://www.w3.org/1999/xlink"><defs><style type="text/css"></style></defs><path d="M600.3 1023.6H424.9c-7.2 0-13.2-5.5-13.8-12.7l-13.3-151.4c-0.7-8.1 5.7-15.1 13.8-15.1h201.8c8.1 0 14.5 7 13.8 15.1l-13.1 151.4c-0.5 7.2-6.5 12.7-13.8 12.7zM936.1 811.8L812 935.9c-5.1 5.1-13.2 5.4-18.7 0.8L676.8 839c-6.2-5.2-6.7-14.7-0.9-20.5l142.7-142.7c5.8-5.8 15.2-5.3 20.5 0.9l97.8 116.4c4.6 5.5 4.3 13.6-0.8 18.7zM1023.4 424.6V600c0 7.2-5.5 13.2-12.7 13.8l-151.4 13.3c-8.1 0.7-15.1-5.7-15.1-13.8V411.5c0-8.1 7-14.5 15.1-13.8l151.4 13.1c7.2 0.6 12.7 6.6 12.7 13.8zM811.3 87.7l124.1 124.1c5.1 5.1 5.4 13.2 0.8 18.7L838.5 347c-5.2 6.2-14.7 6.7-20.5 0.9L675.3 205.2c-5.8-5.8-5.3-15.2 0.9-20.5l116.4-97.8c5.5-4.6 13.6-4.3 18.7 0.8zM424 0.3h175.4c7.2 0 13.2 5.5 13.8 12.7l13.3 151.4c0.7 8.1-5.7 15.1-13.8 15.1H410.8c-8.1 0-14.5-7-13.8-15.1L410.1 13C410.8 5.8 416.8 0.3 424 0.3zM88.2 213.9l124-124c5.1-5.1 13.2-5.4 18.7-0.8l116.5 97.7c6.2 5.2 6.7 14.7 0.9 20.5L205.6 349.9c-5.8 5.8-15.2 5.3-20.5-0.9L87.4 232.7c-4.7-5.5-4.3-13.7 0.8-18.8zM0.6 601.4V425.9c0-7.2 5.5-13.2 12.7-13.8l151.4-13.3c8.1-0.7 15.1 5.7 15.1 13.8v201.8c0 8.1-7 14.5-15.1 13.8l-151.4-13C6.1 614.6 0.6 608.6 0.6 601.4z" p-id="7109"></path><path d="M512.2 895.5C300.6 895.5 129 724 129 512.4c0-211.6 171.5-383.1 383.1-383.1 211.6 0 383.1 171.5 383.1 383.1 0.1 211.6-171.5 383.1-383 383.1z" p-id="7110"></path><path d="M212.7 936.1L88.6 812c-5.1-5.1-5.4-13.2-0.8-18.7l97.7-116.5c5.2-6.2 14.7-6.7 20.5-0.9l142.7 142.7c5.8 5.8 5.3 15.2-0.9 20.5l-116.4 97.8c-5.5 4.6-13.6 4.3-18.7-0.8zM600.5 1024H425.1c-7.2 0-13.2-5.5-13.8-12.7L398 859.9c-0.7-8.1 5.7-15.1 13.8-15.1h201.8c8.1 0 14.5 7 13.8 15.1l-13.1 151.4c-0.6 7.2-6.6 12.7-13.8 12.7z" p-id="7111"></path><path d="M600.5 1024H425.1c-7.2 0-13.2-5.5-13.8-12.7L398 859.9c-0.7-8.1 5.7-15.1 13.8-15.1h201.8c8.1 0 14.5 7 13.8 15.1l-13.1 151.4c-0.6 7.2-6.6 12.7-13.8 12.7z" p-id="7112"></path><path d="M512 667.9c-86.2 0-156-69.8-156-156 0-86.1 69.8-156 156-156 86.1 0 156 69.8 156 156s-69.9 156-156 156z" fill="#FFFFFF" p-id="7113"></path></svg>