<?xml version="1.0" standalone="no"?><!DOCTYPE svg PUBLIC "-//W3C//DTD SVG 1.1//EN" "http://www.w3.org/Graphics/SVG/1.1/DTD/svg11.dtd"><svg t="1646733014524" class="icon" viewBox="0 0 1024 1024" version="1.1" xmlns="http://www.w3.org/2000/svg" p-id="15670" width="128" height="128" xmlns:xlink="http://www.w3.org/1999/xlink"><defs><style type="text/css"></style></defs><path d="M976.384 454.144l47.616-47.616a519.168 519.168 0 0 0-75.776-181.76h-66.56l-81.92-81.92V75.776A519.168 519.168 0 0 0 617.472 0l-47.616 47.616H454.144L406.528 0a519.168 519.168 0 0 0-181.76 75.776v66.56l-81.92 81.92H75.776A519.168 519.168 0 0 0 0 406.528l47.616 47.616v116.224l-47.616 47.104a519.168 519.168 0 0 0 75.776 181.76h66.56l81.92 81.92v66.56A519.168 519.168 0 0 0 406.528 1024l47.616-47.616h116.224l47.616 47.616a519.168 519.168 0 0 0 181.76-75.776v-66.56l81.92-81.92h66.56A519.68 519.68 0 0 0 1024 617.472l-47.616-47.616zM512 819.2a307.2 307.2 0 1 1 307.2-307.2 307.2 307.2 0 0 1-307.2 307.2z" p-id="15671"></path><path d="M512 512m-204.8 0a204.8 204.8 0 1 0 409.6 0 204.8 204.8 0 1 0-409.6 0Z" p-id="15672"></path></svg>